<!DOCTYPE svg PUBLIC "-//W3C//DTD SVG 1.1//EN" "http://www.w3.org/Graphics/SVG/1.1/DTD/svg11.dtd">
<!-- Uploaded to: SVG Repo, www.svgrepo.com, Transformed by: SVG Repo Mixer Tools -->
<svg fill="#ffffff" height="800px" width="800px" version="1.1" id="Layer_1" xmlns="http://www.w3.org/2000/svg" xmlns:xlink="http://www.w3.org/1999/xlink" viewBox="-51.2 -51.2 614.40 614.40" xml:space="preserve" stroke="#ffffff" stroke-width="0.00512">
<g id="SVGRepo_bgCarrier" stroke-width="0"/>
<g id="SVGRepo_tracerCarrier" stroke-linecap="round" stroke-linejoin="round" stroke="#000000" stroke-width="5.12"> <g> <g> <circle cx="157.016" cy="454.081" r="7.837"/> </g> </g> <g> <g> <circle cx="362.819" cy="62.119" r="7.837"/> </g> </g> <g> <g> <path d="M277.688,52.858c-13.449-10.212-38.631-7.364-56.469-3.505c2.823-6.797,4.243-14.551,1.115-21.506 c-4.417-9.819-16.061-14.798-34.611-14.798c-39.021,0-56.207,42.182-70.015,76.074c-6.181,15.171-12.018,29.5-18.279,36.189 l-0.567,0.588c-0.112,0.118-0.21,0.242-0.313,0.366c-7.723,7.932-15.006,16.217-21.761,24.807 c-2.676,3.402-2.088,8.329,1.315,11.005c3.401,2.675,8.329,2.087,11.005-1.314c7.811-9.931,16.361-19.434,25.507-28.424 c-20.994,27.588-33.072,55.652-35.331,82.587c-0.362,4.313,2.841,8.103,7.154,8.465c0.223,0.019,0.444,0.028,0.664,0.028 c4.032,0,7.457-3.093,7.801-7.183c2.826-33.702,22.463-64.612,44.606-89.335c-1.118,1.952-2.204,3.917-3.264,5.892 c-0.204,0.326-0.417,0.648-0.607,0.981c-0.217,0.38-0.392,0.782-0.544,1.192c-11.861,22.608-20.008,46.664-23.954,71.361 c-1.632,10.211-2.541,20.403-2.771,30.546c-2.213-2.096-4.934-3.624-8.43-4.043c-10.112-1.227-16.365,7.789-21.385,15.028 c-1.269,1.831-3.164,4.563-4.622,6.18c-1.045-1.854-2.26-4.857-3.074-6.868c-3.155-7.794-7.081-17.494-16.721-18.939 c-1.467-0.218-2.849-0.213-4.159-0.028c5.503-13.963,12.507-27.854,21.011-41.579c2.28-3.679,1.145-8.51-2.534-10.79 c-3.68-2.28-8.51-1.144-10.79,2.534c-15.468,24.964-26.494,51.481-32.616,78.14c-0.064,0.204-0.135,0.404-0.182,0.613 c-5.024,22.265-6.585,44.342-4.71,66.029c0.014,0.156,0.027,0.311,0.041,0.467c0.083,0.945,0.172,1.886,0.27,2.828 c0.048,0.478,0.097,0.955,0.149,1.432c0.058,0.537,0.122,1.074,0.185,1.611c0.096,0.83,0.195,1.659,0.303,2.487 c0.003,0.024,0.006,0.047,0.009,0.071c3.39,26.219,11.837,51.598,25.267,75.849c-12.694-4.089-27.64-7.625-36.693-5.427 c-7.248,1.753-11.046,8.437-9.236,16.253c3.329,14.376,26.635,35.349,62.164,35.348c5.327,0,10.934-0.482,16.784-1.517 c5.642,5.779,11.567,11.142,17.72,15.993c21.736,17.138,44.907,27.157,68.867,29.775c3.757,0.411,7.356,0.615,10.794,0.615 c12.947,0,23.591-2.909,31.732-8.689c0.671-0.476,1.263-1.055,1.753-1.716c21.443-28.85-6.016-70.348-28.086-99.446 c20.437-39.991,5.619-75.962-8.851-84.52c-6.897-4.077-14.409-2.477-18.268,3.885c-4.311,7.097-5.696,20.039-5.908,32.214 c-33.76-64.16-32.86-136.535,0.003-198.979c0.055-0.093,0.121-0.18,0.172-0.276c7.913-13.466,38.799-20.182,66.062-26.11 c36.307-7.894,70.602-15.351,71.857-40.205C287.844,63.169,282.379,56.42,277.688,52.858z M25.074,426.619 c-4.588-3.551-7.208-6.93-8.467-9.224c9.889,0.055,29.918,6.625,43.573,12.292c2.122,2.936,4.315,5.804,6.572,8.606 C44.698,439.529,30.648,430.933,25.074,426.619z M167.185,319.576c1.8,1.887,4.22,5.391,6.212,10.81 c2.485,6.762,6.571,23.344-2.024,44.692c-2.047-2.651-3.88-5.058-5.424-7.186l0.016-0.345l-0.055-0.563 C164.47,352.232,164.096,329.49,167.185,319.576z M137.799,357.127c0.754-0.182,1.444-0.429,2.101-0.707 c3.571,6.149,7.439,12.217,11.604,18.192c0.037,0.056,0.075,0.111,0.114,0.166c0.102,0.146,0.2,0.295,0.302,0.441 c2.642,3.768,6.128,8.26,10.166,13.461c1.437,1.852,2.946,3.796,4.499,5.815c0.036,0.047,0.072,0.094,0.108,0.14 c19.375,25.194,45.813,62.253,31.705,83.529c-7.071,4.491-17.392,6.032-30.714,4.577c-28.104-3.071-55.95-18.528-79.043-43.006 c-0.482-0.73-1.084-1.371-1.775-1.904c-5.228-5.706-10.196-11.885-14.858-18.487c-0.213-0.362-0.453-0.706-0.724-1.031 c-2.995-4.3-5.867-8.766-8.586-13.411c-4.672-7.98-8.746-16.092-12.24-24.314c0.093-0.029,0.184-0.05,0.277-0.081 c8.369-2.834,9.449-12.385,10.403-20.813c0.317-2.794,0.863-7.628,1.721-9.906c2.069,1.235,5.491,4.865,7.662,7.169 c6.209,6.588,13.936,14.788,23.799,11.852c9.195-2.73,10.76-12.782,11.903-20.123c0.353-2.272,0.906-5.815,1.59-7.592 c1.969,0.936,5.403,4.056,7.573,6.028C121.353,352.542,128.78,359.287,137.799,357.127z M131.174,340.026 c-1.816-1.388-3.874-3.256-5.248-4.504c-6.161-5.597-13.141-11.942-21.961-10.037c-10.339,2.234-12.079,13.401-13.231,20.789 c-0.318,2.035-0.799,5.132-1.38,6.947c-2.067-1.326-5.333-4.793-7.427-7.014c-6.066-6.436-13.614-14.45-23.254-12.07 c-10.716,2.646-12.1,14.869-13.109,23.793c-0.191,1.685-0.457,4.035-0.793,5.951c-0.217-0.184-0.451-0.389-0.702-0.614 c-10.326-32.484-11.782-66.385-4.331-100.822c2.125-2.683,3.989-5.895,5.802-9.022c1.631-2.81,4.524-7.794,6.379-9.36 c1.433,1.649,3.331,6.338,4.404,8.99c3.135,7.743,7.035,17.379,16.79,17.693c8.452,0.259,13.69-7.282,18.315-13.954 c1.709-2.465,4.745-6.843,6.564-8.128c1.159,1.346,2.768,4.77,3.781,6.925c2.072,4.407,4.354,9.248,8.103,12.573 C112.842,292.79,119.975,316.907,131.174,340.026z M131.572,96.641c0.217-0.533,0.433-1.062,0.652-1.6 c12.663-31.084,27.017-66.314,55.5-66.314c16.524,0,19.726,4.246,20.314,5.547c2.08,4.605-3.579,14.935-8.897,21.424 C175.327,66.358,152.469,80.266,131.572,96.641z M271.589,74.308c-0.65,12.874-31.933,19.676-59.533,25.677 c-15.166,3.298-30.572,6.65-43.789,11.343c11.152-15.041,24.379-29.228,39.635-42.255c18.34-5.879,49.687-11.802,60.309-3.728 C269.929,66.65,271.864,68.847,271.589,74.308z"/> </g> </g> <g> <g> <path d="M511.552,93.277c-3.831-16.534-34.083-41.793-78.958-33.838c-6.007-6.15-12.333-11.829-18.919-16.927 c-3.423-2.65-8.346-2.023-10.994,1.4c-2.65,3.423-2.023,8.345,1.4,10.994c6.962,5.39,13.618,11.493,19.874,18.168 c0.053,0.062,0.111,0.118,0.165,0.178c9.443,10.102,17.963,21.519,25.182,33.851c4.662,7.964,8.735,16.081,12.221,24.325 c-0.087,0.027-0.171,0.041-0.259,0.07c-8.369,2.834-9.449,12.385-10.403,20.813c-0.317,2.794-0.863,7.628-1.721,9.906 c-2.069-1.235-5.491-4.865-7.662-7.169c-6.209-6.587-13.934-14.785-23.799-11.852c-9.195,2.73-10.76,12.782-11.904,20.123 c-0.353,2.272-0.906,5.815-1.59,7.592c-1.969-0.936-5.403-4.056-7.573-6.028c-5.967-5.422-13.398-12.168-22.413-10.006 c-0.754,0.182-1.444,0.429-2.101,0.707c-3.571-6.149-7.439-12.217-11.604-18.192c-0.037-0.056-0.075-0.111-0.114-0.166 c-0.102-0.146-0.2-0.295-0.302-0.441c-2.641-3.768-6.128-8.26-10.166-13.461c-1.437-1.852-2.946-3.796-4.499-5.815 c-0.036-0.047-0.072-0.094-0.108-0.14c-19.376-25.191-45.814-62.251-31.706-83.528c7.071-4.492,17.394-6.03,30.714-4.577 c8.906,0.973,17.874,3.195,26.653,6.604c4.033,1.566,8.575-0.435,10.142-4.47c1.566-4.034-0.435-8.575-4.47-10.142 c-10.054-3.904-20.358-6.452-30.624-7.573c-17.915-1.959-32.224,0.759-42.527,8.074c-0.671,0.476-1.263,1.055-1.753,1.716 c-21.443,28.85,6.015,70.348,28.086,99.446c-20.437,39.991-5.619,75.963,8.851,84.521c2.553,1.509,5.19,2.241,7.696,2.241 c4.262,0,8.143-2.118,10.573-6.126c4.311-7.097,5.696-20.039,5.908-32.214c33.74,64.122,32.861,136.45,0.055,198.869 c-0.047,0.076-0.099,0.147-0.144,0.226c-7.673,13.424-39.175,20.354-60.021,24.94c-4.228,0.93-6.901,5.111-5.971,9.337 c0.806,3.66,4.047,6.154,7.647,6.154c0.558,0,1.124-0.06,1.692-0.185c13.702-3.015,26.548-6.074,37.594-9.964 c-11.146,15.022-24.362,29.195-39.604,42.21c-18.339,5.878-49.686,11.8-60.309,3.728c-1.717-1.304-3.652-3.501-3.377-8.963 c0.356-7.079,10.436-13.262,30.815-18.901c4.171-1.155,6.617-5.472,5.463-9.643c-1.155-4.171-5.47-6.616-9.643-5.463 c-19.177,5.307-41.315,13.879-42.289,33.22c-0.6,11.926,4.865,18.675,9.556,22.238c13.448,10.212,38.63,7.363,56.469,3.505 c-2.823,6.797-4.243,14.551-1.115,21.506c4.417,9.819,16.061,14.798,34.611,14.798c39.022,0,56.205-42.176,70.012-76.065 c6.194-15.203,12.045-29.562,18.345-36.261l0.52-0.541c0.275-0.292,0.513-0.602,0.735-0.921 c30.994-32.089,54.693-69.815,67.525-109.444c2.234-6.899,4.115-13.799,5.68-20.691c0.013-0.05,0.032-0.098,0.044-0.148 c0.057-0.253,0.109-0.506,0.165-0.759c0.183-0.821,0.362-1.643,0.535-2.464c0.154-0.726,0.298-1.452,0.444-2.178 c0.303-1.507,0.591-3.013,0.862-4.519c0.094-0.521,0.187-1.043,0.277-1.563c0.549-3.169,1.025-6.336,1.433-9.498 c0.07-0.542,0.136-1.085,0.202-1.626c0.183-1.511,0.349-3.021,0.499-4.53c0.069-0.687,0.139-1.374,0.201-2.061 c0.078-0.867,0.151-1.735,0.218-2.601c0.069-0.885,0.13-1.769,0.187-2.653c0.071-1.084,0.134-2.166,0.188-3.247 c0.048-0.958,0.091-1.916,0.126-2.875c0.025-0.682,0.05-1.364,0.068-2.045c0.039-1.423,0.064-2.845,0.073-4.266 c0.003-0.555,0-1.109-0.001-1.664c-0.002-1.171-0.014-2.341-0.034-3.51c-0.009-0.48-0.014-0.96-0.026-1.44 c-0.038-1.509-0.096-3.017-0.167-4.522c-0.024-0.505-0.051-1.008-0.079-1.513c-0.075-1.382-0.163-2.764-0.266-4.143 c-0.027-0.366-0.054-0.732-0.084-1.098c-0.114-1.413-0.245-2.824-0.388-4.234c-0.053-0.526-0.107-1.05-0.164-1.575 c-0.161-1.474-0.333-2.948-0.526-4.418c-0.066-0.507-0.141-1.013-0.211-1.519c-0.15-1.088-0.31-2.173-0.479-3.259 c-0.095-0.611-0.187-1.224-0.287-1.834c-0.222-1.347-0.457-2.692-0.705-4.034c-0.135-0.731-0.278-1.461-0.421-2.191 c-0.159-0.808-0.323-1.614-0.491-2.42c-0.262-1.259-0.538-2.517-0.824-3.772c-0.159-0.697-0.317-1.393-0.484-2.089 c-0.217-0.912-0.442-1.822-0.673-2.732c-0.123-0.488-0.253-0.975-0.38-1.462c-0.433-1.66-0.887-3.315-1.363-4.969 c-0.117-0.406-0.233-0.814-0.353-1.22c-4.446-15.119-10.638-29.923-18.592-44.291c10.033,3.227,21.473,6.116,30.281,6.115 c2.352,0,4.518-0.207,6.418-0.668C509.565,107.78,513.363,101.095,511.552,93.277z M344.814,192.424 c-1.8-1.887-4.22-5.391-6.212-10.81c-2.485-6.761-6.571-23.344,2.024-44.692c2.046,2.651,3.879,5.058,5.424,7.186l-0.016,0.345 l0.055,0.563C347.528,159.768,347.902,182.51,344.814,192.424z M379.772,416.968c-12.662,31.079-27.014,66.306-55.497,66.306 c-16.524,0-19.726-4.246-20.314-5.547c-2.082-4.608,3.589-14.953,8.912-21.44c24.13-10.801,46.879-24.683,67.551-40.917 C380.206,415.902,379.991,416.431,379.772,416.968z M397.429,379.599c20.967-27.57,33.029-55.614,35.286-82.529 c0.362-4.313-2.841-8.103-7.154-8.465c-4.318-0.36-8.103,2.842-8.465,7.154c-2.826,33.704-22.465,64.614-44.608,89.338 c1.118-1.953,2.205-3.918,3.267-5.894c0.206-0.331,0.418-0.659,0.611-0.998c0.217-0.38,0.39-0.772,0.537-1.17 c11.863-22.608,20.012-46.667,23.96-71.365c1.632-10.211,2.541-20.403,2.771-30.546c2.213,2.096,4.934,3.624,8.43,4.043 c10.107,1.224,16.365-7.789,21.385-15.028c1.268-1.831,3.164-4.563,4.622-6.18c1.045,1.854,2.26,4.857,3.074,6.868 c3.155,7.794,7.081,17.494,16.721,18.939c0.764,0.114,1.504,0.168,2.224,0.168c0.605,0,1.194-0.04,1.77-0.114 C448.238,318.656,425.838,351.574,397.429,379.599z M466.435,154.07c0.191-1.685,0.457-4.035,0.793-5.951 c0.205,0.173,0.428,0.369,0.662,0.58c0.168,0.531,0.343,1.061,0.507,1.591c0.208,0.674,0.406,1.348,0.607,2.023 c0.363,1.223,0.723,2.445,1.061,3.672c0.053,0.192,0.1,0.385,0.153,0.577c1.782,6.56,3.214,13.18,4.285,19.852 c0,0.003,0.001,0.006,0.001,0.008c1.368,8.525,2.155,17.134,2.358,25.803c0.001,0.033,0.002,0.067,0.003,0.1 c0.038,1.634,0.051,3.272,0.047,4.91c-0.001,0.228-0.003,0.457-0.004,0.684c-0.009,1.572-0.034,3.144-0.081,4.72 c-0.006,0.191-0.016,0.382-0.022,0.574c-0.144,4.359-0.446,8.732-0.883,13.113c-0.097,0.971-0.191,1.941-0.303,2.913 c-0.101,0.887-0.217,1.774-0.33,2.662c-0.149,1.165-0.306,2.33-0.476,3.496c-0.112,0.767-0.227,1.534-0.347,2.301 c-0.217,1.38-0.451,2.762-0.698,4.145c-0.103,0.581-0.201,1.162-0.309,1.743c-0.371,1.987-0.765,3.977-1.196,5.968 c-2.125,2.683-3.989,5.895-5.802,9.022c-1.631,2.811-4.523,7.795-6.378,9.36c-1.433-1.649-3.331-6.338-4.405-8.99 c-3.135-7.743-7.035-17.379-16.79-17.693c-0.153-0.004-0.304-0.007-0.455-0.007c-8.182,0-13.319,7.409-17.861,13.961 c-1.709,2.465-4.745,6.843-6.564,8.128c-1.159-1.346-2.768-4.77-3.781-6.925c-2.072-4.407-4.354-9.248-8.103-12.573 c-2.965-24.628-10.098-48.746-21.297-71.864c1.817,1.388,3.876,3.256,5.25,4.504c6.161,5.598,13.144,11.943,21.961,10.037 c10.339-2.234,12.079-13.401,13.23-20.789c0.318-2.035,0.799-5.132,1.38-6.946c2.067,1.326,5.333,4.793,7.427,7.014 c6.066,6.435,13.614,14.448,23.254,12.07C464.043,175.218,465.426,162.995,466.435,154.07z M451.826,82.314 c-2.124-2.939-4.322-5.809-6.58-8.612c22.053-1.238,36.102,7.361,41.677,11.675c4.588,3.551,7.208,6.93,8.468,9.224 C485.523,94.532,465.492,87.97,451.826,82.314z"/> </g> </g> </g>
<g id="SVGRepo_iconCarrier"> <g> <g> <circle cx="157.016" cy="454.081" r="7.837"/> </g> </g> <g> <g> <circle cx="362.819" cy="62.119" r="7.837"/> </g> </g> <g> <g> <path d="M277.688,52.858c-13.449-10.212-38.631-7.364-56.469-3.505c2.823-6.797,4.243-14.551,1.115-21.506 c-4.417-9.819-16.061-14.798-34.611-14.798c-39.021,0-56.207,42.182-70.015,76.074c-6.181,15.171-12.018,29.5-18.279,36.189 l-0.567,0.588c-0.112,0.118-0.21,0.242-0.313,0.366c-7.723,7.932-15.006,16.217-21.761,24.807 c-2.676,3.402-2.088,8.329,1.315,11.005c3.401,2.675,8.329,2.087,11.005-1.314c7.811-9.931,16.361-19.434,25.507-28.424 c-20.994,27.588-33.072,55.652-35.331,82.587c-0.362,4.313,2.841,8.103,7.154,8.465c0.223,0.019,0.444,0.028,0.664,0.028 c4.032,0,7.457-3.093,7.801-7.183c2.826-33.702,22.463-64.612,44.606-89.335c-1.118,1.952-2.204,3.917-3.264,5.892 c-0.204,0.326-0.417,0.648-0.607,0.981c-0.217,0.38-0.392,0.782-0.544,1.192c-11.861,22.608-20.008,46.664-23.954,71.361 c-1.632,10.211-2.541,20.403-2.771,30.546c-2.213-2.096-4.934-3.624-8.43-4.043c-10.112-1.227-16.365,7.789-21.385,15.028 c-1.269,1.831-3.164,4.563-4.622,6.18c-1.045-1.854-2.26-4.857-3.074-6.868c-3.155-7.794-7.081-17.494-16.721-18.939 c-1.467-0.218-2.849-0.213-4.159-0.028c5.503-13.963,12.507-27.854,21.011-41.579c2.28-3.679,1.145-8.51-2.534-10.79 c-3.68-2.28-8.51-1.144-10.79,2.534c-15.468,24.964-26.494,51.481-32.616,78.14c-0.064,0.204-0.135,0.404-0.182,0.613 c-5.024,22.265-6.585,44.342-4.71,66.029c0.014,0.156,0.027,0.311,0.041,0.467c0.083,0.945,0.172,1.886,0.27,2.828 c0.048,0.478,0.097,0.955,0.149,1.432c0.058,0.537,0.122,1.074,0.185,1.611c0.096,0.83,0.195,1.659,0.303,2.487 c0.003,0.024,0.006,0.047,0.009,0.071c3.39,26.219,11.837,51.598,25.267,75.849c-12.694-4.089-27.64-7.625-36.693-5.427 c-7.248,1.753-11.046,8.437-9.236,16.253c3.329,14.376,26.635,35.349,62.164,35.348c5.327,0,10.934-0.482,16.784-1.517 c5.642,5.779,11.567,11.142,17.72,15.993c21.736,17.138,44.907,27.157,68.867,29.775c3.757,0.411,7.356,0.615,10.794,0.615 c12.947,0,23.591-2.909,31.732-8.689c0.671-0.476,1.263-1.055,1.753-1.716c21.443-28.85-6.016-70.348-28.086-99.446 c20.437-39.991,5.619-75.962-8.851-84.52c-6.897-4.077-14.409-2.477-18.268,3.885c-4.311,7.097-5.696,20.039-5.908,32.214 c-33.76-64.16-32.86-136.535,0.003-198.979c0.055-0.093,0.121-0.18,0.172-0.276c7.913-13.466,38.799-20.182,66.062-26.11 c36.307-7.894,70.602-15.351,71.857-40.205C287.844,63.169,282.379,56.42,277.688,52.858z M25.074,426.619 c-4.588-3.551-7.208-6.93-8.467-9.224c9.889,0.055,29.918,6.625,43.573,12.292c2.122,2.936,4.315,5.804,6.572,8.606 C44.698,439.529,30.648,430.933,25.074,426.619z M167.185,319.576c1.8,1.887,4.22,5.391,6.212,10.81 c2.485,6.762,6.571,23.344-2.024,44.692c-2.047-2.651-3.88-5.058-5.424-7.186l0.016-0.345l-0.055-0.563 C164.47,352.232,164.096,329.49,167.185,319.576z M137.799,357.127c0.754-0.182,1.444-0.429,2.101-0.707 c3.571,6.149,7.439,12.217,11.604,18.192c0.037,0.056,0.075,0.111,0.114,0.166c0.102,0.146,0.2,0.295,0.302,0.441 c2.642,3.768,6.128,8.26,10.166,13.461c1.437,1.852,2.946,3.796,4.499,5.815c0.036,0.047,0.072,0.094,0.108,0.14 c19.375,25.194,45.813,62.253,31.705,83.529c-7.071,4.491-17.392,6.032-30.714,4.577c-28.104-3.071-55.95-18.528-79.043-43.006 c-0.482-0.73-1.084-1.371-1.775-1.904c-5.228-5.706-10.196-11.885-14.858-18.487c-0.213-0.362-0.453-0.706-0.724-1.031 c-2.995-4.3-5.867-8.766-8.586-13.411c-4.672-7.98-8.746-16.092-12.24-24.314c0.093-0.029,0.184-0.05,0.277-0.081 c8.369-2.834,9.449-12.385,10.403-20.813c0.317-2.794,0.863-7.628,1.721-9.906c2.069,1.235,5.491,4.865,7.662,7.169 c6.209,6.588,13.936,14.788,23.799,11.852c9.195-2.73,10.76-12.782,11.903-20.123c0.353-2.272,0.906-5.815,1.59-7.592 c1.969,0.936,5.403,4.056,7.573,6.028C121.353,352.542,128.78,359.287,137.799,357.127z M131.174,340.026 c-1.816-1.388-3.874-3.256-5.248-4.504c-6.161-5.597-13.141-11.942-21.961-10.037c-10.339,2.234-12.079,13.401-13.231,20.789 c-0.318,2.035-0.799,5.132-1.38,6.947c-2.067-1.326-5.333-4.793-7.427-7.014c-6.066-6.436-13.614-14.45-23.254-12.07 c-10.716,2.646-12.1,14.869-13.109,23.793c-0.191,1.685-0.457,4.035-0.793,5.951c-0.217-0.184-0.451-0.389-0.702-0.614 c-10.326-32.484-11.782-66.385-4.331-100.822c2.125-2.683,3.989-5.895,5.802-9.022c1.631-2.81,4.524-7.794,6.379-9.36 c1.433,1.649,3.331,6.338,4.404,8.99c3.135,7.743,7.035,17.379,16.79,17.693c8.452,0.259,13.69-7.282,18.315-13.954 c1.709-2.465,4.745-6.843,6.564-8.128c1.159,1.346,2.768,4.77,3.781,6.925c2.072,4.407,4.354,9.248,8.103,12.573 C112.842,292.79,119.975,316.907,131.174,340.026z M131.572,96.641c0.217-0.533,0.433-1.062,0.652-1.6 c12.663-31.084,27.017-66.314,55.5-66.314c16.524,0,19.726,4.246,20.314,5.547c2.08,4.605-3.579,14.935-8.897,21.424 C175.327,66.358,152.469,80.266,131.572,96.641z M271.589,74.308c-0.65,12.874-31.933,19.676-59.533,25.677 c-15.166,3.298-30.572,6.65-43.789,11.343c11.152-15.041,24.379-29.228,39.635-42.255c18.34-5.879,49.687-11.802,60.309-3.728 C269.929,66.65,271.864,68.847,271.589,74.308z"/> </g> </g> <g> <g> <path d="M511.552,93.277c-3.831-16.534-34.083-41.793-78.958-33.838c-6.007-6.15-12.333-11.829-18.919-16.927 c-3.423-2.65-8.346-2.023-10.994,1.4c-2.65,3.423-2.023,8.345,1.4,10.994c6.962,5.39,13.618,11.493,19.874,18.168 c0.053,0.062,0.111,0.118,0.165,0.178c9.443,10.102,17.963,21.519,25.182,33.851c4.662,7.964,8.735,16.081,12.221,24.325 c-0.087,0.027-0.171,0.041-0.259,0.07c-8.369,2.834-9.449,12.385-10.403,20.813c-0.317,2.794-0.863,7.628-1.721,9.906 c-2.069-1.235-5.491-4.865-7.662-7.169c-6.209-6.587-13.934-14.785-23.799-11.852c-9.195,2.73-10.76,12.782-11.904,20.123 c-0.353,2.272-0.906,5.815-1.59,7.592c-1.969-0.936-5.403-4.056-7.573-6.028c-5.967-5.422-13.398-12.168-22.413-10.006 c-0.754,0.182-1.444,0.429-2.101,0.707c-3.571-6.149-7.439-12.217-11.604-18.192c-0.037-0.056-0.075-0.111-0.114-0.166 c-0.102-0.146-0.2-0.295-0.302-0.441c-2.641-3.768-6.128-8.26-10.166-13.461c-1.437-1.852-2.946-3.796-4.499-5.815 c-0.036-0.047-0.072-0.094-0.108-0.14c-19.376-25.191-45.814-62.251-31.706-83.528c7.071-4.492,17.394-6.03,30.714-4.577 c8.906,0.973,17.874,3.195,26.653,6.604c4.033,1.566,8.575-0.435,10.142-4.47c1.566-4.034-0.435-8.575-4.47-10.142 c-10.054-3.904-20.358-6.452-30.624-7.573c-17.915-1.959-32.224,0.759-42.527,8.074c-0.671,0.476-1.263,1.055-1.753,1.716 c-21.443,28.85,6.015,70.348,28.086,99.446c-20.437,39.991-5.619,75.963,8.851,84.521c2.553,1.509,5.19,2.241,7.696,2.241 c4.262,0,8.143-2.118,10.573-6.126c4.311-7.097,5.696-20.039,5.908-32.214c33.74,64.122,32.861,136.45,0.055,198.869 c-0.047,0.076-0.099,0.147-0.144,0.226c-7.673,13.424-39.175,20.354-60.021,24.94c-4.228,0.93-6.901,5.111-5.971,9.337 c0.806,3.66,4.047,6.154,7.647,6.154c0.558,0,1.124-0.06,1.692-0.185c13.702-3.015,26.548-6.074,37.594-9.964 c-11.146,15.022-24.362,29.195-39.604,42.21c-18.339,5.878-49.686,11.8-60.309,3.728c-1.717-1.304-3.652-3.501-3.377-8.963 c0.356-7.079,10.436-13.262,30.815-18.901c4.171-1.155,6.617-5.472,5.463-9.643c-1.155-4.171-5.47-6.616-9.643-5.463 c-19.177,5.307-41.315,13.879-42.289,33.22c-0.6,11.926,4.865,18.675,9.556,22.238c13.448,10.212,38.63,7.363,56.469,3.505 c-2.823,6.797-4.243,14.551-1.115,21.506c4.417,9.819,16.061,14.798,34.611,14.798c39.022,0,56.205-42.176,70.012-76.065 c6.194-15.203,12.045-29.562,18.345-36.261l0.52-0.541c0.275-0.292,0.513-0.602,0.735-0.921 c30.994-32.089,54.693-69.815,67.525-109.444c2.234-6.899,4.115-13.799,5.68-20.691c0.013-0.05,0.032-0.098,0.044-0.148 c0.057-0.253,0.109-0.506,0.165-0.759c0.183-0.821,0.362-1.643,0.535-2.464c0.154-0.726,0.298-1.452,0.444-2.178 c0.303-1.507,0.591-3.013,0.862-4.519c0.094-0.521,0.187-1.043,0.277-1.563c0.549-3.169,1.025-6.336,1.433-9.498 c0.07-0.542,0.136-1.085,0.202-1.626c0.183-1.511,0.349-3.021,0.499-4.53c0.069-0.687,0.139-1.374,0.201-2.061 c0.078-0.867,0.151-1.735,0.218-2.601c0.069-0.885,0.13-1.769,0.187-2.653c0.071-1.084,0.134-2.166,0.188-3.247 c0.048-0.958,0.091-1.916,0.126-2.875c0.025-0.682,0.05-1.364,0.068-2.045c0.039-1.423,0.064-2.845,0.073-4.266 c0.003-0.555,0-1.109-0.001-1.664c-0.002-1.171-0.014-2.341-0.034-3.51c-0.009-0.48-0.014-0.96-0.026-1.44 c-0.038-1.509-0.096-3.017-0.167-4.522c-0.024-0.505-0.051-1.008-0.079-1.513c-0.075-1.382-0.163-2.764-0.266-4.143 c-0.027-0.366-0.054-0.732-0.084-1.098c-0.114-1.413-0.245-2.824-0.388-4.234c-0.053-0.526-0.107-1.05-0.164-1.575 c-0.161-1.474-0.333-2.948-0.526-4.418c-0.066-0.507-0.141-1.013-0.211-1.519c-0.15-1.088-0.31-2.173-0.479-3.259 c-0.095-0.611-0.187-1.224-0.287-1.834c-0.222-1.347-0.457-2.692-0.705-4.034c-0.135-0.731-0.278-1.461-0.421-2.191 c-0.159-0.808-0.323-1.614-0.491-2.42c-0.262-1.259-0.538-2.517-0.824-3.772c-0.159-0.697-0.317-1.393-0.484-2.089 c-0.217-0.912-0.442-1.822-0.673-2.732c-0.123-0.488-0.253-0.975-0.38-1.462c-0.433-1.66-0.887-3.315-1.363-4.969 c-0.117-0.406-0.233-0.814-0.353-1.22c-4.446-15.119-10.638-29.923-18.592-44.291c10.033,3.227,21.473,6.116,30.281,6.115 c2.352,0,4.518-0.207,6.418-0.668C509.565,107.78,513.363,101.095,511.552,93.277z M344.814,192.424 c-1.8-1.887-4.22-5.391-6.212-10.81c-2.485-6.761-6.571-23.344,2.024-44.692c2.046,2.651,3.879,5.058,5.424,7.186l-0.016,0.345 l0.055,0.563C347.528,159.768,347.902,182.51,344.814,192.424z M379.772,416.968c-12.662,31.079-27.014,66.306-55.497,66.306 c-16.524,0-19.726-4.246-20.314-5.547c-2.082-4.608,3.589-14.953,8.912-21.44c24.13-10.801,46.879-24.683,67.551-40.917 C380.206,415.902,379.991,416.431,379.772,416.968z M397.429,379.599c20.967-27.57,33.029-55.614,35.286-82.529 c0.362-4.313-2.841-8.103-7.154-8.465c-4.318-0.36-8.103,2.842-8.465,7.154c-2.826,33.704-22.465,64.614-44.608,89.338 c1.118-1.953,2.205-3.918,3.267-5.894c0.206-0.331,0.418-0.659,0.611-0.998c0.217-0.38,0.39-0.772,0.537-1.17 c11.863-22.608,20.012-46.667,23.96-71.365c1.632-10.211,2.541-20.403,2.771-30.546c2.213,2.096,4.934,3.624,8.43,4.043 c10.107,1.224,16.365-7.789,21.385-15.028c1.268-1.831,3.164-4.563,4.622-6.18c1.045,1.854,2.26,4.857,3.074,6.868 c3.155,7.794,7.081,17.494,16.721,18.939c0.764,0.114,1.504,0.168,2.224,0.168c0.605,0,1.194-0.04,1.77-0.114 C448.238,318.656,425.838,351.574,397.429,379.599z M466.435,154.07c0.191-1.685,0.457-4.035,0.793-5.951 c0.205,0.173,0.428,0.369,0.662,0.58c0.168,0.531,0.343,1.061,0.507,1.591c0.208,0.674,0.406,1.348,0.607,2.023 c0.363,1.223,0.723,2.445,1.061,3.672c0.053,0.192,0.1,0.385,0.153,0.577c1.782,6.56,3.214,13.18,4.285,19.852 c0,0.003,0.001,0.006,0.001,0.008c1.368,8.525,2.155,17.134,2.358,25.803c0.001,0.033,0.002,0.067,0.003,0.1 c0.038,1.634,0.051,3.272,0.047,4.91c-0.001,0.228-0.003,0.457-0.004,0.684c-0.009,1.572-0.034,3.144-0.081,4.72 c-0.006,0.191-0.016,0.382-0.022,0.574c-0.144,4.359-0.446,8.732-0.883,13.113c-0.097,0.971-0.191,1.941-0.303,2.913 c-0.101,0.887-0.217,1.774-0.33,2.662c-0.149,1.165-0.306,2.33-0.476,3.496c-0.112,0.767-0.227,1.534-0.347,2.301 c-0.217,1.38-0.451,2.762-0.698,4.145c-0.103,0.581-0.201,1.162-0.309,1.743c-0.371,1.987-0.765,3.977-1.196,5.968 c-2.125,2.683-3.989,5.895-5.802,9.022c-1.631,2.811-4.523,7.795-6.378,9.36c-1.433-1.649-3.331-6.338-4.405-8.99 c-3.135-7.743-7.035-17.379-16.79-17.693c-0.153-0.004-0.304-0.007-0.455-0.007c-8.182,0-13.319,7.409-17.861,13.961 c-1.709,2.465-4.745,6.843-6.564,8.128c-1.159-1.346-2.768-4.77-3.781-6.925c-2.072-4.407-4.354-9.248-8.103-12.573 c-2.965-24.628-10.098-48.746-21.297-71.864c1.817,1.388,3.876,3.256,5.25,4.504c6.161,5.598,13.144,11.943,21.961,10.037 c10.339-2.234,12.079-13.401,13.23-20.789c0.318-2.035,0.799-5.132,1.38-6.946c2.067,1.326,5.333,4.793,7.427,7.014 c6.066,6.435,13.614,14.448,23.254,12.07C464.043,175.218,465.426,162.995,466.435,154.07z M451.826,82.314 c-2.124-2.939-4.322-5.809-6.58-8.612c22.053-1.238,36.102,7.361,41.677,11.675c4.588,3.551,7.208,6.93,8.468,9.224 C485.523,94.532,465.492,87.97,451.826,82.314z"/> </g> </g> </g>
</svg>